<svg width="223" height="223" viewBox="0 0 223 223" fill="none" xmlns="http://www.w3.org/2000/svg">
<path fill-rule="evenodd" clip-rule="evenodd" d="M111.5 223C173.08 223 223 173.08 223 111.5C223 49.9202 173.08 0 111.5 0C49.9202 0 0 49.9202 0 111.5C0 173.08 49.9202 223 111.5 223ZM111.5 207.669C58.3874 207.669 15.3311 164.613 15.3311 111.5C15.3311 82.9612 27.7622 57.3259 47.5051 39.7135C47.7091 39.7021 47.9156 39.6922 48.1248 39.6836C62.187 39.1087 68.5394 47.4547 68.0248 61.8187C67.6037 73.5789 61.201 89.298 55.1982 104.035C49.9014 117.039 44.9161 129.278 44.6268 137.358C44.0698 152.906 51.8816 157.648 57.9504 157.4C63.8713 157.158 67.8471 153.452 67.8954 152.1C67.9129 151.611 67.76 151.181 67.5526 150.597C67.1153 149.368 66.4358 147.457 66.6001 142.872C66.7271 139.324 67.2983 135.757 68.1717 132.008C76.4838 102.139 109.967 54.5354 118.256 54.1965C124.12 53.9567 117.656 67.16 108.951 84.9374C98.9793 105.303 86.0682 131.672 85.3864 150.71C84.8357 166.088 92.2787 172.87 98.9394 172.599C105.157 172.344 108.528 169 108.582 167.48C108.603 166.891 108.422 166.454 108.185 165.884C107.742 164.818 107.107 163.289 107.245 159.434C107.269 158.758 107.332 158.039 107.395 157.319C107.457 156.599 107.52 155.879 107.544 155.204C112.023 120.935 145.077 77.0609 153.81 76.7039C159.685 76.4636 154.661 87.1925 147.5 102.484C139.325 119.939 128.366 143.339 127.657 163.157C127.424 169.643 128.407 195.6 145.664 201.424C135.048 205.459 123.532 207.669 111.5 207.669ZM180.833 178.144C197.452 160.858 207.669 137.372 207.669 111.5C207.669 58.3874 164.613 15.3311 111.5 15.3311C101.203 15.3311 91.2843 16.9494 81.9838 19.9454C94.4821 27.3261 95.272 48.0181 95.0772 53.4567C94.9138 58.0195 94.3064 62.6003 93.4028 67.1933C104.107 53.0876 118.819 38.4806 133.473 37.8813C139.69 37.6271 143.665 42.1894 143.411 49.2869C143.03 59.9331 137.531 73.151 130.658 87.6063C141.189 74.1826 155.107 61.1267 169.022 60.5581C175.091 60.3098 179.065 64.8718 178.817 71.8003C178.304 86.1348 173.046 97.408 167.569 109.149C161.619 121.907 155.41 135.219 154.752 153.611C154.195 169.158 163.601 178.898 178.995 178.269C179.627 178.243 180.24 178.201 180.833 178.144Z" fill="url(#paint0_linear_12_166)"/>
<path fill-rule="evenodd" clip-rule="evenodd" d="M111.5 223C173.08 223 223 173.08 223 111.5C223 49.9202 173.08 0 111.5 0C49.9202 0 0 49.9202 0 111.5C0 173.08 49.9202 223 111.5 223ZM111.5 207.669C58.3874 207.669 15.3311 164.613 15.3311 111.5C15.3311 82.9612 27.7622 57.3259 47.5051 39.7135C47.7091 39.7021 47.9156 39.6922 48.1248 39.6836C62.187 39.1087 68.5394 47.4547 68.0248 61.8187C67.6037 73.5789 61.201 89.298 55.1982 104.035C49.9014 117.039 44.9161 129.278 44.6268 137.358C44.0698 152.906 51.8816 157.648 57.9504 157.4C63.8713 157.158 67.8471 153.452 67.8954 152.1C67.9129 151.611 67.76 151.181 67.5526 150.597C67.1153 149.368 66.4358 147.457 66.6001 142.872C66.7271 139.324 67.2983 135.757 68.1717 132.008C76.4838 102.139 109.967 54.5354 118.256 54.1965C124.12 53.9567 117.656 67.16 108.951 84.9374C98.9793 105.303 86.0682 131.672 85.3864 150.71C84.8357 166.088 92.2787 172.87 98.9394 172.599C105.157 172.344 108.528 169 108.582 167.48C108.603 166.891 108.422 166.454 108.185 165.884C107.742 164.818 107.107 163.289 107.245 159.434C107.269 158.758 107.332 158.039 107.395 157.319C107.457 156.599 107.52 155.879 107.544 155.204C112.023 120.935 145.077 77.0609 153.81 76.7039C159.685 76.4636 154.661 87.1925 147.5 102.484C139.325 119.939 128.366 143.339 127.657 163.157C127.424 169.643 128.407 195.6 145.664 201.424C135.048 205.459 123.532 207.669 111.5 207.669ZM180.833 178.144C197.452 160.858 207.669 137.372 207.669 111.5C207.669 58.3874 164.613 15.3311 111.5 15.3311C101.203 15.3311 91.2843 16.9494 81.9838 19.9454C94.4821 27.3261 95.272 48.0181 95.0772 53.4567C94.9138 58.0195 94.3064 62.6003 93.4028 67.1933C104.107 53.0876 118.819 38.4806 133.473 37.8813C139.69 37.6271 143.665 42.1894 143.411 49.2869C143.03 59.9331 137.531 73.151 130.658 87.6063C141.189 74.1826 155.107 61.1267 169.022 60.5581C175.091 60.3098 179.065 64.8718 178.817 71.8003C178.304 86.1348 173.046 97.408 167.569 109.149C161.619 121.907 155.41 135.219 154.752 153.611C154.195 169.158 163.601 178.898 178.995 178.269C179.627 178.243 180.24 178.201 180.833 178.144Z" fill="white" fill-opacity="0.2"/>
<defs>
<linearGradient id="paint0_linear_12_166" x1="-7" y1="-18" x2="180" y2="206" gradientUnits="userSpaceOnUse">
<stop stop-color="#F76D6D"/>
<stop offset="0.489892" stop-color="#FF4BF8"/>
<stop offset="1" stop-color="#9016A4"/>
</linearGradient>
</defs>
</svg>
